PathFileType	3	(X/Y/Z)	D:\minhoCalibration\240510\subject5_KPNP\preferred\preferred13.trc
DataRate	CameraRate	NumFrames	NumMarkers	Units	OrigDataRate	OrigDataStartFrame	OrigNumFrames
200.0	200.0	37	10	mm	200.0	504	141	
Frame#	Time	Left_Ankle_Outer1			Left_Ankle_Inner1			Left_Knee_Outer1			Left_Knee_Inner1			Left_Wrist1			Right_Wrist1			Right_Knee_Inner1			Right_Knee_Outer1			Right_Ankle_Inner1			Right_Ankle_Outer1			
		X1	Y1	Z1	X2	Y2	Z2	X3	Y3	Z3	X4	Y4	Z4	X5	Y5	Z5	X6	Y6	Z6	X7	Y7	Z7	X8	Y8	Z8	X9	Y9	Z9	X10	Y10	Z10	
504	2.51	244.40028	73.753128	-495.46027	192.28041	84.618446	-494.9375	303.32932	522.76746	-327.98776	211.82414	508.0986	-317.60342	389.53348	957.47516	-458.78098	143.71819	1177.0364	-438.7522	-122.33724	993.1933	-69.223343	-159.86111	1051.0465	-124.438	-414.19672	888.43402	239.27844	-480.86362	911.06281	172.80458
505	2.515	245.07301	73.68483	-495.34082	193.62207	84.68824	-495.88742	305.30505	522.71381	-328.51813	213.45949	507.13724	-317.76343	389.79828	958.24756	-457.95801	140.88268	1174.6941	-440.05115	-124.14306	987.02673	-72.476311	-161.8369	1045.1053	-127.47701	-416.48865	877.34778	234.05884	-483.11752	899.05109	166.94179
506	2.52	245.5697	73.438843	-495.32172	193.83247	85.436729	-496.82968	307.25391	522.57245	-329.08801	215.71191	507.34366	-317.72723	390.29166	959.0318	-456.95663	138.3734	1172.5245	-441.63974	-125.74947	980.83026	-75.788307	-163.56442	1039.0424	-130.40225	-418.5383	865.23499	227.63179	-485.11951	886.09778	160.69237
507	2.525	245.95126	73.322983	-495.24628	194.81451	84.835548	-495.92557	309.20328	522.38507	-329.74265	217.30478	507.09528	-317.64215	390.76947	959.40387	-455.89493	136.75591	1170.2089	-443.87973	-127.25589	974.38757	-79.046791	-165.28964	1032.9636	-133.36801	-421.2431	852.65521	221.83794	-487.16736	872.78833	153.79222
508	2.53	246.38884	73.396347	-495.30563	194.51581	84.843422	-495.59094	310.85245	522.14618	-330.36636	218.98222	506.70081	-317.48907	391.55435	959.75195	-454.69647	135.30135	1168.589	-446.20258	-128.4119	967.94263	-82.369041	-166.70654	1026.6591	-136.3717	-423.61636	839.28516	214.8531	-489.21213	859.07721	146.31598
509	2.535	246.13411	73.263252	-495.09357	195.07059	84.952354	-496.17068	312.3313	521.90784	-331.04568	220.66566	506.38635	-318.52649	392.49249	960.31097	-452.75357	134.53827	1167.1295	-448.40488	-129.49141	961.39014	-85.579529	-167.98499	1020.3466	-139.45009	-425.97742	825.2724	207.28961	-491.14987	844.93396	138.29706
510	2.54	246.16626	73.28627	-495.2345	194.71941	85.100014	-495.58981	313.35632	521.73108	-331.76718	221.71136	506.35153	-318.0387	393.14478	960.52692	-451.44189	134.20622	1167.3011	-450.77628	-130.49985	954.69318	-88.901474	-168.98581	1013.8848	-142.44495	-428.2825	810.76434	199.1019	-493.00317	830.65228	129.83617
511	2.545	246.01657	73.449295	-495.03683	194.42863	85.577484	-496.77975	314.16666	521.65894	-332.50461	222.4899	506.27435	-318.3844	394.15109	961.39575	-448.93585	134.50487	1166.3491	-453.17429	-131.38091	947.81598	-92.221245	-169.92137	1007.3285	-145.42406	-430.31769	795.50415	190.15094	-494.78119	816.29474	120.94175
512	2.55	245.77344	73.43718	-495.06476	193.99507	85.44278	-496.11526	314.59659	521.63629	-333.22507	222.86569	506.5517	-318.69003	394.92841	961.75012	-447.52969	132.86554	1167.1512	-454.58481	-132.2271	940.66992	-95.725212	-170.49178	1000.6461	-148.38744	-432.71066	780.33032	181.12317	-496.50369	802.07721	111.63532
513	2.555	245.50977	73.531685	-495.06525	194.01688	84.961693	-495.52707	314.65057	521.57904	-333.79993	222.81618	506.50717	-319.70828	395.8407	962.495	-445.56985	133.67271	1166.9845	-456.00974	-132.97847	933.01379	-99.390656	-170.96185	993.77661	-151.33185	-434.47177	764.46576	170.97993	-498.13358	787.73096	101.88378
514	2.56	245.17365	73.515312	-495.20218	193.76193	84.977448	-495.61734	314.56839	521.62573	-334.31168	222.62314	506.78986	-319.81293	396.69687	964.09113	-443.39182	133.57651	1166.4371	-457.87833	-133.47589	924.80573	-103.24597	-171.22977	986.6972	-154.1837	-436.65067	748.62372	161.2471	-499.63055	773.41986	91.891998
515	2.565	244.87614	73.621513	-495.16263	193.17734	84.93132	-494.95993	314.3363	521.6123	-334.70782	222.64577	507.24136	-321.39862	397.84253	964.32812	-442.35214	132.29169	1166.1979	-459.15631	-133.96909	916.35107	-107.4462	-171.59306	979.53571	-156.96494	-438.22891	732.59357	150.64246	-501.10953	759.03418	81.33931
516	2.57	244.17082	73.219688	-495.21628	193.29083	84.976067	-495.73206	314.14026	521.63635	-335.12897	221.94101	507.55078	-322.57812	398.8847	966.23651	-440.23004	132.10751	1165.5538	-460.51852	-134.26498	907.33124	-111.81092	-171.75288	972.06226	-159.74472	-439.44644	716.37854	139.65971	-502.08096	744.46002	70.801033
517	2.575	243.97118	73.447189	-495.2572	193.013	84.877502	-495.72562	313.95172	521.66357	-335.5274	221.73946	508.01437	-323.41171	399.84714	967.19019	-438.98352	132.08159	1164.7955	-461.75201	-134.53929	898.04156	-116.51188	-171.64278	964.3208	-162.61487	-440.40826	700.16901	128.39789	-502.96216	729.51086	59.814163
518	2.58	243.94562	73.625938	-495.36713	192.70775	84.686134	-495.6665	313.85339	521.73486	-335.97507	221.78564	508.03012	-325.68192	400.75122	968.34857	-437.7963	131.72237	1164.1714	-462.46335	-134.64516	888.55396	-121.44608	-171.53366	956.58331	-165.54242	-440.84845	683.27777	116.14105	-503.25174	714.54291	48.755203
519	2.585	243.99007	73.622337	-495.78067	192.58896	84.575142	-495.74615	314.09894	521.83203	-336.6539	221.9361	508.30179	-327.00101	401.76624	969.35828	-436.86719	131.40201	1163.4336	-462.92419	-134.51826	879.1192	-126.73232	-171.32535	948.59247	-168.54622	-441.1701	667.065	104.38847	-503.2547	699.47882	37.394093
520	2.59	243.91994	73.693077	-495.84219	192.43298	84.58551	-495.67996	314.41202	521.98572	-337.28635	222.05447	508.41785	-328.20877	402.42331	970.47089	-436.08304	131.78368	1162.9253	-464.00958	-134.3445	869.58783	-132.12585	-171.00908	940.4519	-171.69081	-440.90714	650.78729	92.557114	-502.84744	684.146	25.946157
521	2.595	243.66028	73.626045	-495.63483	192.3351	84.526588	-495.46664	314.82275	522.11029	-338.27209	222.38297	508.6665	-329.31958	403.20755	971.65021	-435.22665	131.3199	1162.2709	-464.39914	-133.8481	860.12311	-137.76939	-170.53954	931.81445	-175.62453	-440.24203	634.48779	80.485519	-502.00354	668.80756	14.159698
522	2.6	243.97772	73.659805	-495.95786	192.62473	84.785118	-495.6301	315.5372	522.47784	-339.19336	223.09814	508.76056	-330.6741	403.95166	972.44946	-434.58829	132.01768	1161.864	-465.45825	-133.3698	850.75873	-143.59625	-170.34059	923.38177	-179.52257	-439.11679	618.2085	68.274902	-500.70541	653.06964	2.1354237
523	2.605	244.0029	73.639221	-495.97067	192.73616	84.809425	-495.62128	316.21518	522.74573	-340.37061	223.61946	508.96448	-331.63217	404.71985	973.37976	-433.94882	130.0972	1160.6868	-464.75684	-132.82471	841.54333	-149.22948	-170.12833	914.65662	-183.93279	-436.58215	602.0036	55.071194	-499.04895	637.31714	-10.077665
524	2.61	243.94115	73.536453	-495.8717	192.85956	84.716614	-495.47769	316.85651	523.03937	-341.6702	224.57063	509.22287	-332.79132	405.47363	974.1767	-433.37234	131.02565	1160.27	-465.84473	-131.86937	832.57092	-154.81223	-170.15274	906.03949	-188.54131	-435.1106	585.88977	42.779003	-496.91516	621.40631	-22.571016
525	2.615	243.96468	73.552155	-495.84134	192.99741	84.788979	-495.4913	317.67764	523.37689	-342.85144	225.23581	509.77695	-333.11557	406.28159	975.14496	-432.74976	130.04559	1159.3687	-465.85614	-130.65306	823.66754	-160.11838	-169.83479	897.03918	-193.82097	-432.61255	569.63678	29.999619	-494.40765	605.5957	-35.285034
526	2.62	244.30673	73.646797	-496.17401	193.04346	84.902977	-495.15466	318.41821	523.68457	-343.93954	225.87737	509.81577	-334.49341	407.06058	976.09656	-432.1973	130.80168	1158.9188	-467.24094	-129.67595	814.40131	-167.25842	-169.63043	888.18768	-199.3085	-429.90369	553.40863	17.006035	-491.71411	589.76196	-48.666698
527	2.625	244.12935	73.680161	-495.91226	193.2589	84.670067	-494.92859	319.25165	523.96222	-344.89709	226.27313	510.03439	-335.03061	407.88678	976.9978	-431.61639	129.48148	1157.7004	-467.14163	-128.65681	805.91693	-173.51729	-169.27257	879.073	-205.17603	-427.00876	537.35059	3.4037285	-488.23892	573.98181	-61.870571
528	2.63	244.4617	73.778351	-496.28348	192.64703	85.700203	-496.38876	320.01721	524.1825	-345.79852	227.18779	510.43124	-336.35312	408.77881	977.97473	-431.16507	130.00835	1156.8612	-468.21091	-127.32956	797.31201	-180.01588	-168.98474	870.00189	-211.33125	-422.87927	521.98047	-10.770364	-484.3526	558.20947	-75.280556
529	2.635	244.30994	73.746429	-496.13339	192.88773	85.852654	-496.71475	320.63824	524.29236	-346.68588	227.77133	510.65314	-337.22928	409.71756	979.00043	-430.51105	129.4928	1155.833	-468.75708	-125.89584	788.59064	-186.56538	-168.49712	860.96899	-217.70233	-419.37982	505.76346	-23.671103	-480.05081	542.36121	-89.053589
530	2.64	244.56046	73.77388	-496.36383	192.63518	86.241837	-497.30057	321.18893	524.34009	-347.48972	228.29445	510.66785	-338.05096	410.51553	979.95862	-430.02316	129.0554	1154.8878	-469.453	-124.37992	779.99615	-193.35391	-167.95801	851.8634	-224.18623	-414.64465	490.04114	-37.625706	-475.28705	526.6452	-103.1067
531	2.645	244.52933	73.734879	-496.35709	192.64062	86.18557	-497.2673	321.6153	524.32574	-348.21466	228.76134	510.74774	-338.95041	411.41415	980.89612	-429.41159	128.84189	1153.7197	-470.01831	-122.52235	771.45587	-200.18976	-167.08151	842.72449	-230.85634	-409.50253	474.47855	-51.784069	-470.09177	511.05576	-117.39767
532	2.65	244.30351	73.614182	-496.20828	193.21887	86.570396	-497.81973	322.0004	524.34528	-348.92654	229.08852	510.94556	-339.71411	412.26715	981.92767	-428.72705	128.84572	1152.3185	-470.94424	-120.59309	762.97528	-207.15424	-166.0609	833.76874	-237.62334	-403.95471	459.08026	-66.246262	-464.37561	495.51474	-131.99817
533	2.655	244.4657	73.686714	-496.19714	192.65182	86.095078	-497.34451	322.34229	524.28693	-349.5401	229.28545	510.96701	-340.55014	412.95197	982.66113	-428.21027	128.2827	1150.9503	-471.60452	-118.41947	754.41614	-214.28227	-164.81055	824.86383	-244.59752	-397.77817	443.87997	-80.950607	-458.22818	480.18716	-146.89366
534	2.66	244.4426	73.542892	-496.20416	193.0811	86.274986	-496.58438	322.65222	524.32233	-350.23587	229.3398	511.08231	-341.32803	413.55545	983.36493	-427.72418	127.72015	1149.3955	-472.17764	-115.9036	746.0733	-221.37152	-162.94623	816.0127	-251.73413	-391.13773	428.76199	-95.827377	-451.63513	464.9975	-161.99489
535	2.665	244.71494	73.526466	-496.46426	193.29207	86.101334	-497.42307	322.88846	524.33862	-350.85358	229.34367	511.19495	-341.87155	414.22433	984.12469	-427.07535	127.92534	1147.8876	-473.49576	-113.17045	737.88104	-228.71837	-160.91504	806.97168	-258.66122	-384.06464	413.9173	-110.98742	-444.54993	450.10999	-177.44695
536	2.67	244.78192	73.440392	-496.44006	193.49179	86.158531	-497.46387	323.06812	524.36621	-351.47018	229.4688	511.25317	-342.78983	414.86389	984.80164	-426.30203	126.11766	1145.5763	-473.55963	-110.20315	729.54626	-236.11636	-158.85521	798.17792	-265.66803	-376.70963	399.29022	-126.00546	-436.97836	435.23465	-193.01653
537	2.675	244.71712	73.289917	-496.20654	193.62691	85.166458	-496.15543	323.18597	524.45172	-352.11823	229.66982	511.35248	-344.21619	415.38657	985.44647	-425.75027	127.64856	1144.5399	-475.76581	-107.02156	721.32739	-243.1599	-156.58218	789.50482	-272.9082	-369.06506	384.26651	-141.56815	-429.202	420.93011	-209.02544
538	2.68	244.94463	73.243462	-496.46606	193.26894	85.47226	-496.74805	323.21872	524.55914	-352.68027	229.40887	511.43521	-345.02573	415.82892	986.08545	-425.05338	124.84753	1141.4064	-475.12573	-103.88288	713.34534	-250.95824	-154.04544	780.90356	-280.27048	-360.92532	370.34106	-157.41708	-420.84985	406.60144	-225.11604
539	2.685	245.00748	73.167595	-496.48782	193.90489	85.318077	-496.38168	323.18188	524.59338	-353.02029	229.33556	511.66595	-346.26428	416.30948	986.77618	-424.31772	125.22143	1140.0951	-476.61542	-100.40298	705.6485	-258.55182	-151.47488	772.51257	-287.64432	-352.40576	356.43182	-173.34073	-412.12689	392.79324	-241.28175
540	2.69	245.04376	73.158325	-496.46576	193.52373	85.417274	-496.84628	323.12289	524.76343	-353.75549	228.98027	511.96201	-347.22015	416.86026	987.53156	-423.33459	125.31112	1139.7922	-477.93341	-96.815887	697.96204	-265.91714	-148.75609	764.2442	-295.52844	-343.56934	342.77936	-189.29697	-402.91684	378.91745	-257.59494
